<?xml version="1.0" encoding="UTF-8" standalone="no"?>
<svg width="29px" height="28px" viewBox="0 0 29 28" version="1.1" xmlns="http://www.w3.org/2000/svg" xmlns:xlink="http://www.w3.org/1999/xlink" xmlns:sketch="http://www.bohemiancoding.com/sketch/ns">
    <!-- Generator: Sketch 3.1.1 (8761) - http://www.bohemiancoding.com/sketch -->
    <title>Github Octocat</title>
    <desc>Created with Sketch.</desc>
    <defs>
        <path id="path-1" d="M30.6082256,6.84404006 C22.9666798,6.84404006 16.7695,13.0403702 16.7695,20.6844649 C16.7695,26.7992308 20.7347095,31.986204 26.2343455,33.8163007 C26.9267915,33.9437448 27.1791307,33.5163824 27.1791307,33.1493435 C27.1791307,32.8213874 27.167236,31.9505197 27.1604389,30.7958765 C23.3107787,31.6319096 22.4985353,28.940291 22.4985353,28.940291 C21.8689616,27.3412929 20.9615599,26.9156297 20.9615599,26.9156297 C19.7049615,26.0575064 21.0567181,26.0744989 21.0567181,26.0744989 C22.4458584,26.1722061 23.1765377,27.5010228 23.1765377,27.5010228 C24.4110458,29.6157445 26.4161656,29.0048627 27.2046196,28.6505682 C27.3303644,27.7567605 27.6880574,27.1467283 28.0831339,26.8009301 C25.0100329,26.4517334 21.7789011,25.2639547 21.7789011,19.9605826 C21.7789011,18.4499457 22.3184143,17.2137383 23.2037257,16.2468627 C23.0609884,15.8968164 22.5860469,14.4889844 23.3396661,12.5841205 C23.3396661,12.5841205 24.5011062,12.2119838 27.1451457,14.0029977 C28.2488112,13.6954327 29.4331913,13.5424998 30.6099248,13.5365524 C31.7858087,13.5424998 32.9693392,13.6954327 34.074704,14.0029977 C36.7170441,12.2119838 37.8767851,12.5841205 37.8767851,12.5841205 C38.6321035,14.4889844 38.157162,15.8968164 38.0152743,16.2468627 C38.9022849,17.2137383 39.43755,18.4499457 39.43755,19.9605826 C39.43755,25.2775488 36.2013205,26.4474852 33.1188735,26.7898849 C33.6150557,27.2172473 34.0577114,28.0617766 34.0577114,29.3532098 C34.0577114,31.2028479 34.0407189,32.6956426 34.0407189,33.1493435 C34.0407189,33.5197809 34.2905092,33.9505418 34.9923012,33.8154511 C40.487689,31.9811063 44.4495,26.7975316 44.4495,20.6844649 C44.4495,13.0403702 38.2523202,6.84404006 30.6082256,6.84404006"></path>
    </defs>
    <g id="Page-1" stroke="none" stroke-width="1" fill="none" fill-rule="evenodd" sketch:type="MSPage">
        <g id="Desktop" sketch:type="MSArtboardGroup" transform="translate(-486.000000, -932.000000)" fill="#EBE6DD">
            <g id="See-on-Github" sketch:type="MSLayerGroup" transform="translate(470.000000, 926.000000)">
                <g id="Github-Octocat">
                    <use sketch:type="MSShapeGroup" xlink:href="#path-1"></use>
                    <use xlink:href="#path-1"></use>
                </g>
            </g>
        </g>
    </g>
</svg>