<?xml version="1.0" encoding="UTF-8" standalone="no"?>
<svg width="32px" height="32px" viewBox="0 0 32 32" version="1.1" xmlns="http://www.w3.org/2000/svg" xmlns:xlink="http://www.w3.org/1999/xlink" xmlns:sketch="http://www.bohemiancoding.com/sketch/ns">
    <!-- Generator: Sketch 3.1.1 (8761) - http://www.bohemiancoding.com/sketch -->
    <title>ralph</title>
    <desc>Created with Sketch.</desc>
    <defs>
        <path id="path-1" d="M0,0.0532093023 L31.9457984,0.0532093023 L31.9457984,31.9925581 L0,31.9925581"></path>
    </defs>
    <g id="Page-1" stroke="none" stroke-width="1" fill="none" fill-rule="evenodd" sketch:type="MSPage">
        <g id="Desktop" sketch:type="MSArtboardGroup" transform="translate(-26.000000, -13.000000)">
            <g id="ralph" sketch:type="MSLayerGroup" transform="translate(26.000000, 13.000000)">
                <g id="Group-3">
                    <mask id="mask-2" sketch:name="Clip 2" fill="white">
                        <use xlink:href="#path-1"></use>
                    </mask>
                    <g id="Clip-2"></g>
                    <path d="M15.9728372,0.0532093023 C7.15150388,0.0532093023 0,7.20421705 0,16.0266667 C0,24.8473798 7.15150388,32 15.9728372,32 C24.7941705,32 31.9457984,24.8473798 31.9457984,16.0266667 C31.9457984,7.20421705 24.7941705,0.0532093023 15.9728372,0.0532093023" id="Fill-1" fill="#9F2823" sketch:type="MSShapeGroup" mask="url(#mask-2)"></path>
                </g>
                <path d="M11.823876,16.8292713 L11.1807752,16.8292713 L11.1807752,21.3647132 L11.1774264,21.3647132 C11.3941085,21.6193488 11.5257054,21.9486512 11.5257054,22.3083411 C11.5257054,22.7562171 11.3229147,23.1577054 11.0044031,23.4256124 L10.6073798,23.0290853 C10.8260465,22.8647442 10.9675659,22.6031628 10.9675659,22.3083411 C10.9675659,21.8107287 10.564093,21.4072558 10.0663566,21.4072558 C9.56862016,21.4072558 9.16514729,21.8107287 9.16514729,22.3083411 C9.16514729,22.6008062 9.30455814,22.8606512 9.52037209,23.0253643 L9.12384496,23.4215194 C8.80793798,23.1536124 8.60700775,22.7541085 8.60700775,22.3083411 C8.60700775,21.9482791 8.73885271,21.6188527 8.95590698,21.364093 L8.95590698,14.2929612 C8.97004651,14.0207132 9.18933333,13.8022946 9.46046512,13.8022946 L22.4246822,13.803907 C22.695814,13.803907 22.9151008,14.0223256 22.9292403,14.2945736 L22.9292403,21.3657054 C23.1462946,21.6203411 23.2781395,21.9498915 23.2781395,22.3100775 C23.2781395,22.7555969 23.0773333,23.1552248 22.7614264,23.4231318 L22.3647752,23.0271008 C22.5807132,22.8623876 22.72,22.6024186 22.72,22.3100775 C22.72,21.8123411 22.3165271,21.4088682 21.8187907,21.4088682 C21.3210543,21.4088682 20.9175814,21.8123411 20.9175814,22.3100775 C20.9175814,22.6047752 21.0591008,22.8662326 21.2777674,23.0306977 L20.8808682,23.4273488 C20.5622326,23.1593178 20.3594419,22.7579535 20.3594419,22.3100775 C20.3594419,21.9502636 20.4910388,21.6210853 20.7077209,21.3662016 L20.7044961,21.3662016 L20.7044961,16.8310078 L20.0612713,16.8310078 L20.0612713,26.4043411 L20.492155,26.6496744 L20.492155,27.427969 L16.1541705,27.427969 L16.1541705,26.6496744 L16.5860465,26.4043411 L16.5865426,26.4043411 L16.5865426,23.4997829 L15.2979845,23.4997829 L15.2979845,26.4043411 L15.7287442,26.6496744 L15.7287442,27.427969 L11.3996899,27.4352868 L11.3996899,26.6496744 L11.8232558,26.4043411 L11.823876,16.8292713" id="Fill-4" fill="#FFFFFF" sketch:type="MSShapeGroup"></path>
                <path d="M15.9435659,6.45755039 C16.8436589,6.45755039 17.6589147,6.77829457 18.1616124,7.26102326 L18.5588837,6.69482171 C17.9311628,6.13258915 16.9924961,5.77537984 15.9435659,5.77537984 C14.8917829,5.77537984 13.9508837,6.13432558 13.3234109,6.69916279 L13.7203101,7.2659845 C14.2225116,6.78052713 15.0404961,6.45755039 15.9435659,6.45755039" id="Fill-5" fill="#FFFFFF" sketch:type="MSShapeGroup"></path>
                <path d="M15.9863566,5.01122481 C16.9697984,5.01122481 17.8872558,5.29537984 18.5694264,5.81147287 C18.707969,5.9164031 18.8328682,6.02803101 18.9431318,6.14524031 L19.3411473,5.57705426 C18.5665736,4.8179845 17.351938,4.32905426 15.9863566,4.32905426 C14.5876589,4.32905426 13.3475969,4.84179845 12.5763721,5.63224806 L12.9762481,6.20328682 C13.0990388,6.06474419 13.2417984,5.93351938 13.4031628,5.81147287 C14.0853333,5.29537984 15.0026667,5.01122481 15.9863566,5.01122481" id="Fill-6" fill="#FFFFFF" sketch:type="MSShapeGroup"></path>
                <path d="M15.9435659,3.62368992 C17.5046202,3.62381395 18.8845891,4.19249612 19.7046822,5.05724031 L20.0997209,4.4943876 C19.1433178,3.55026357 17.6373333,2.94151938 15.9435659,2.94151938 C14.2468217,2.94151938 12.7389767,3.55212403 11.7826977,4.49872868 L12.1773643,5.06244961 C12.9968372,4.19485271 14.3794109,3.62381395 15.9435659,3.62368992" id="Fill-7" fill="#FFFFFF" sketch:type="MSShapeGroup"></path>
                <path d="M14.6244961,10.3057364 C14.6244961,10.5420155 14.4326202,10.7345116 14.1948527,10.7345116 C13.9589457,10.7345116 13.7664496,10.5420155 13.7664496,10.3057364 C13.7664496,10.0672248 13.9589457,9.87584496 14.1948527,9.87584496 C14.4326202,9.87584496 14.6244961,10.0672248 14.6244961,10.3057364" id="Fill-8" fill="#FFFFFF" sketch:type="MSShapeGroup"></path>
                <path d="M17.5617984,11.143938 C17.0976744,11.143938 16.7214884,10.7673798 16.7214884,10.3057364 C16.7214884,9.84173643 17.0976744,9.46629457 17.5617984,9.46629457 C18.0249302,9.46629457 18.4004961,9.84173643 18.4004961,10.3057364 C18.4004961,10.7673798 18.0249302,11.143938 17.5617984,11.143938 L17.5617984,11.143938 Z M14.1948527,11.143938 C13.7324651,11.143938 13.3568992,10.7673798 13.3568992,10.3057364 C13.3568992,9.84173643 13.7324651,9.46629457 14.1948527,9.46629457 C14.6579845,9.46629457 15.0334264,9.84173643 15.0334264,10.3057364 C15.0334264,10.7673798 14.6579845,11.143938 14.1948527,11.143938 L14.1948527,11.143938 Z M19.1663876,7.99367442 L12.5794729,7.99367442 C12.3094574,7.99367442 12.0885581,8.21296124 12.0885581,8.48409302 L12.0885581,12.7812713 C12.0885581,13.0506667 12.3094574,13.2713178 12.5794729,13.2713178 L19.1663876,13.2713178 C19.4375194,13.2713178 19.6573023,13.0506667 19.6573023,12.7812713 L19.6573023,8.48409302 C19.6573023,8.21296124 19.4375194,7.99367442 19.1663876,7.99367442 L19.1663876,7.99367442 Z" id="Fill-9" fill="#FFFFFF" sketch:type="MSShapeGroup"></path>
                <path d="M17.9924341,10.3057364 C17.9924341,10.5420155 17.7978295,10.7345116 17.5617984,10.7345116 C17.3247752,10.7345116 17.1327752,10.5420155 17.1327752,10.3057364 C17.1327752,10.0672248 17.3247752,9.87584496 17.5617984,9.87584496 C17.7978295,9.87584496 17.9924341,10.0672248 17.9924341,10.3057364" id="Fill-10" fill="#FFFFFF" sketch:type="MSShapeGroup"></path>
            </g>
        </g>
    </g>
</svg>