<?xml version="1.0" encoding="UTF-8" standalone="no"?>
<svg width="29px" height="28px" viewBox="0 0 29 28" version="1.1" xmlns="http://www.w3.org/2000/svg" xmlns:xlink="http://www.w3.org/1999/xlink" xmlns:sketch="http://www.bohemiancoding.com/sketch/ns">
    <!-- Generator: Sketch 3.1.1 (8761) - http://www.bohemiancoding.com/sketch -->
    <title>Github Octocat</title>
    <desc>Created with Sketch.</desc>
    <defs></defs>
    <g id="Page-1" stroke="none" stroke-width="1" fill="none" fill-rule="evenodd" sketch:type="MSPage">
        <g id="Desktop" sketch:type="MSArtboardGroup" transform="translate(-1193.000000, -14.000000)" fill="#9B9B9B">
            <path d="M1207.60823,14.8440401 C1199.96668,14.8440401 1193.7695,21.0403702 1193.7695,28.6844649 C1193.7695,34.7992308 1197.73471,39.986204 1203.23435,41.8163007 C1203.92679,41.9437448 1204.17913,41.5163824 1204.17913,41.1493435 C1204.17913,40.8213874 1204.16724,39.9505197 1204.16044,38.7958765 C1200.31078,39.6319096 1199.49854,36.940291 1199.49854,36.940291 C1198.86896,35.3412929 1197.96156,34.9156297 1197.96156,34.9156297 C1196.70496,34.0575064 1198.05672,34.0744989 1198.05672,34.0744989 C1199.44586,34.1722061 1200.17654,35.5010228 1200.17654,35.5010228 C1201.41105,37.6157445 1203.41617,37.0048627 1204.20462,36.6505682 C1204.33036,35.7567605 1204.68806,35.1467283 1205.08313,34.8009301 C1202.01003,34.4517334 1198.7789,33.2639547 1198.7789,27.9605826 C1198.7789,26.4499457 1199.31841,25.2137383 1200.20373,24.2468627 C1200.06099,23.8968164 1199.58605,22.4889844 1200.33967,20.5841205 C1200.33967,20.5841205 1201.50111,20.2119838 1204.14515,22.0029977 C1205.24881,21.6954327 1206.43319,21.5424998 1207.60992,21.5365524 C1208.78581,21.5424998 1209.96934,21.6954327 1211.0747,22.0029977 C1213.71704,20.2119838 1214.87679,20.5841205 1214.87679,20.5841205 C1215.6321,22.4889844 1215.15716,23.8968164 1215.01527,24.2468627 C1215.90228,25.2137383 1216.43755,26.4499457 1216.43755,27.9605826 C1216.43755,33.2775488 1213.20132,34.4474852 1210.11887,34.7898849 C1210.61506,35.2172473 1211.05771,36.0617766 1211.05771,37.3532098 C1211.05771,39.2028479 1211.04072,40.6956426 1211.04072,41.1493435 C1211.04072,41.5197809 1211.29051,41.9505418 1211.9923,41.8154511 C1217.48769,39.9811063 1221.4495,34.7975316 1221.4495,28.6844649 C1221.4495,21.0403702 1215.25232,14.8440401 1207.60823,14.8440401" id="Github-Octocat" sketch:type="MSShapeGroup"></path>
        </g>
    </g>
</svg>